<?xml version="1.0" encoding="UTF-8"?>
<svg width="515px" height="87px" viewBox="0 0 515 87" version="1.1" xmlns="http://www.w3.org/2000/svg" xmlns:xlink="http://www.w3.org/1999/xlink">
    <title>编组 197</title>
    <defs>
        <filter x="-14.8%" y="-14.8%" width="129.6%" height="129.6%" filterUnits="objectBoundingBox" id="filter-1">
            <feOffset dx="0" dy="1" in="SourceAlpha" result="shadowOffsetOuter1"></feOffset>
            <feGaussianBlur stdDeviation="0.5" in="shadowOffsetOuter1" result="shadowBlurOuter1"></feGaussianBlur>
            <feColorMatrix values="0 0 0 0 0.473618659   0 0 0 0 0.473618659   0 0 0 0 0.473618659  0 0 0 0.5 0" type="matrix" in="shadowBlurOuter1" result="shadowMatrixOuter1"></feColorMatrix>
            <feMerge>
                <feMergeNode in="shadowMatrixOuter1"></feMergeNode>
                <feMergeNode in="SourceGraphic"></feMergeNode>
            </feMerge>
        </filter>
        <filter x="-14.8%" y="-14.8%" width="129.6%" height="129.6%" filterUnits="objectBoundingBox" id="filter-2">
            <feOffset dx="0" dy="1" in="SourceAlpha" result="shadowOffsetOuter1"></feOffset>
            <feGaussianBlur stdDeviation="0.5" in="shadowOffsetOuter1" result="shadowBlurOuter1"></feGaussianBlur>
            <feColorMatrix values="0 0 0 0 0.473618659   0 0 0 0 0.473618659   0 0 0 0 0.473618659  0 0 0 0.5 0" type="matrix" in="shadowBlurOuter1" result="shadowMatrixOuter1"></feColorMatrix>
            <feMerge>
                <feMergeNode in="shadowMatrixOuter1"></feMergeNode>
                <feMergeNode in="SourceGraphic"></feMergeNode>
            </feMerge>
        </filter>
        <filter x="-14.8%" y="-14.8%" width="129.6%" height="129.6%" filterUnits="objectBoundingBox" id="filter-3">
            <feOffset dx="0" dy="1" in="SourceAlpha" result="shadowOffsetOuter1"></feOffset>
            <feGaussianBlur stdDeviation="0.5" in="shadowOffsetOuter1" result="shadowBlurOuter1"></feGaussianBlur>
            <feColorMatrix values="0 0 0 0 0.473618659   0 0 0 0 0.473618659   0 0 0 0 0.473618659  0 0 0 0.5 0" type="matrix" in="shadowBlurOuter1" result="shadowMatrixOuter1"></feColorMatrix>
            <feMerge>
                <feMergeNode in="shadowMatrixOuter1"></feMergeNode>
                <feMergeNode in="SourceGraphic"></feMergeNode>
            </feMerge>
        </filter>
        <filter x="-14.8%" y="-14.8%" width="129.6%" height="129.6%" filterUnits="objectBoundingBox" id="filter-4">
            <feOffset dx="0" dy="1" in="SourceAlpha" result="shadowOffsetOuter1"></feOffset>
            <feGaussianBlur stdDeviation="0.5" in="shadowOffsetOuter1" result="shadowBlurOuter1"></feGaussianBlur>
            <feColorMatrix values="0 0 0 0 0.473618659   0 0 0 0 0.473618659   0 0 0 0 0.473618659  0 0 0 0.5 0" type="matrix" in="shadowBlurOuter1" result="shadowMatrixOuter1"></feColorMatrix>
            <feMerge>
                <feMergeNode in="shadowMatrixOuter1"></feMergeNode>
                <feMergeNode in="SourceGraphic"></feMergeNode>
            </feMerge>
        </filter>
    </defs>
    <g id="页面-1" stroke="none" stroke-width="1" fill="none" fill-rule="evenodd">
        <g id="编组-197" transform="translate(0.000000, 1.000000)">
            <g id="编组-101" transform="translate(4.000000, 17.000000)">
                <g id="编组-100" fill="#A5876A" fill-opacity="0.3">
                    <path d="M6,12 C9.3137085,12 12,9.3137085 12,6 C12,2.6862915 9.3137085,0 6,0 C2.6862915,0 0,2.6862915 0,6 C0,9.3137085 2.6862915,12 6,12 Z" id="椭圆形" transform="translate(6.000000, 6.000000) scale(-1, 1) translate(-6.000000, -6.000000) "></path>
                </g>
                <text id="A" font-family="TimesNewRomanPS-BoldMT, Times New Roman" font-size="9" font-weight="bold" fill="#A0886E">
                    <tspan x="3" y="9">A</tspan>
                </text>
            </g>
            <text id="Digitalization" font-family="TimesNewRomanPS-BoldMT, Times New Roman" font-size="10" font-weight="bold" fill="#000000">
                <tspan x="20" y="25">Digitalization</tspan>
                <tspan x="77.7734375" y="25" font-size="12" letter-spacing="-0.184615385"> </tspan>
            </text>
            <g id="编组-134" transform="translate(5.000000, 36.000000)">
                <g id="content/folder-" fill="#F5F3EF" filter="url(#filter-1)">
                    <g id="shapes/rounded-aquare-">
                        <path d="M13.5,0 C27,0 27,0 27,13.5 C27,27 27,27 13.5,27 C0,27 0,27 0,13.5 C0,0 0,0 13.5,0 Z" id="Rectangle"></path>
                    </g>
                </g>
                <g id="yidongyunkongzhitaiicon06" transform="translate(3.857143, 3.857143)" fill="#8C765F" fill-rule="nonzero">
                    <path d="M19.2857143,6.02678571 L0,6.02678571 L0,0 L19.2857143,0 L19.2857143,6.02678571 Z M1.20535714,4.82142857 L18.0803571,4.82142857 L18.0803571,1.20535714 L1.20535714,1.20535714 L1.20535714,4.82142857 Z M16.3928571,2.04910714 C15.9107143,2.04910714 15.4285714,2.53125 15.4285714,3.01339286 C15.4285714,3.49553571 15.9107143,3.97767857 16.3928571,3.97767857 C16.875,3.97767857 17.3571429,3.49553571 17.3571429,3.01339286 C17.3571429,2.53125 16.9955357,2.04910714 16.3928571,2.04910714 Z M13.6205357,2.04910714 C13.1383929,2.04910714 12.65625,2.53125 12.65625,3.01339286 C12.65625,3.49553571 13.1383929,3.97767857 13.6205357,3.97767857 C14.1026786,3.97767857 14.5848214,3.49553571 14.5848214,3.01339286 C14.5848214,2.53125 14.2232143,2.04910714 13.6205357,2.04910714 Z M10.8482143,2.04910714 C10.3660714,2.04910714 9.88392857,2.41071429 9.88392857,3.01339286 C9.88392857,3.61607143 10.3660714,3.97767857 10.8482143,3.97767857 C11.3303571,3.97767857 11.8125,3.49553571 11.8125,3.01339286 C11.8125,2.53125 11.4508929,2.04910714 10.8482143,2.04910714 Z M16.3928571,8.67857143 C15.9107143,8.67857143 15.4285714,9.16071429 15.4285714,9.64285714 C15.4285714,10.125 15.9107143,10.6071429 16.3928571,10.6071429 C16.875,10.6071429 17.3571429,10.125 17.3571429,9.64285714 C17.3571429,9.16071429 16.9955357,8.67857143 16.3928571,8.67857143 Z M13.6205357,8.67857143 C13.1383929,8.67857143 12.65625,9.16071429 12.65625,9.64285714 C12.65625,10.125 13.1383929,10.6071429 13.6205357,10.6071429 C14.1026786,10.6071429 14.5848214,10.125 14.5848214,9.64285714 C14.5848214,9.16071429 14.2232143,8.67857143 13.6205357,8.67857143 Z M10.8482143,8.67857143 C10.3660714,8.67857143 9.88392857,9.16071429 9.88392857,9.64285714 C9.88392857,10.125 10.3660714,10.6071429 10.8482143,10.6071429 C11.3303571,10.6071429 11.8125,10.125 11.8125,9.64285714 C11.8125,9.16071429 11.4508929,8.67857143 10.8482143,8.67857143 Z M16.3928571,15.4285714 C15.9107143,15.4285714 15.4285714,15.9107143 15.4285714,16.3928571 C15.4285714,16.875 15.9107143,17.3571429 16.3928571,17.3571429 C16.875,17.3571429 17.3571429,16.875 17.3571429,16.3928571 C17.3571429,15.9107143 16.9955357,15.4285714 16.3928571,15.4285714 Z M13.6205357,15.4285714 C13.1383929,15.4285714 12.65625,15.9107143 12.65625,16.3928571 C12.65625,16.875 13.1383929,17.3571429 13.6205357,17.3571429 C14.1026786,17.3571429 14.5848214,16.875 14.5848214,16.3928571 C14.5848214,15.9107143 14.2232143,15.4285714 13.6205357,15.4285714 Z M10.8482143,15.4285714 C10.3660714,15.4285714 9.88392857,15.9107143 9.88392857,16.3928571 C9.88392857,16.875 10.3660714,17.3571429 10.8482143,17.3571429 C11.3303571,17.3571429 11.8125,16.875 11.8125,16.3928571 C11.8125,15.9107143 11.4508929,15.4285714 10.8482143,15.4285714 Z" id="形状"></path>
                    <path d="M19.2857143,12.65625 L0,12.65625 L0,6.62946429 L19.2857143,6.62946429 L19.2857143,12.65625 Z M1.20535714,11.4508929 L18.0803571,11.4508929 L18.0803571,7.83482143 L1.20535714,7.83482143 L1.20535714,11.4508929 Z" id="形状"></path>
                    <path d="M19.2857143,19.2857143 L0,19.2857143 L0,13.2589286 L19.2857143,13.2589286 L19.2857143,19.2857143 Z M1.20535714,18.0803571 L18.0803571,18.0803571 L18.0803571,14.4642857 L1.20535714,14.4642857 L1.20535714,18.0803571 Z" id="形状"></path>
                </g>
            </g>
            <g id="编组-130" transform="translate(40.000000, 34.000000)" fill="#000000" font-family="TimesNewRomanPSMT, Times New Roman" font-size="9" font-weight="normal">
                <text id="Storage">
                    <tspan x="0.5" y="8">Storage </tspan>
                </text>
                <text id="Retrieval">
                    <tspan x="0" y="19.5">Retrieval </tspan>
                </text>
                <text id="Restoration">
                    <tspan x="0.5" y="31">Restoration </tspan>
                </text>
            </g>
            <line x1="0" y1="32" x2="114" y2="32" id="路径-18" stroke="#C2C2C2" stroke-width="0.5"></line>
            <text id="(11)" font-family="TimesNewRomanPS-BoldMT, Times New Roman" font-size="10" font-weight="bold" fill="#896E50">
                <tspan x="95" y="26">(11)</tspan>
            </text>
            <text id="(5)" font-family="TimesNewRomanPSMT, Times New Roman" font-size="9" font-weight="normal" fill="#000000">
                <tspan x="100" y="65">(5)</tspan>
            </text>
            <text id="(3)" font-family="TimesNewRomanPSMT, Times New Roman" font-size="9" font-weight="normal" fill="#000000">
                <tspan x="100" y="54">(3)</tspan>
            </text>
            <text id="(3)" font-family="TimesNewRomanPSMT, Times New Roman" font-size="9" font-weight="normal" fill="#000000">
                <tspan x="98" y="43"> (3)</tspan>
            </text>
            <rect id="矩形" stroke="#979797" stroke-width="0.5" x="0.25" y="14.25" width="113.5" height="56.5" rx="2"></rect>
            <g id="编组-131" transform="translate(135.000000, 14.000000)">
                <g id="编组-101" transform="translate(4.000000, 4.000000)">
                    <g id="编组-100" fill="#A5876A" fill-opacity="0.3">
                        <path d="M6,12 C9.3137085,12 12,9.3137085 12,6 C12,2.6862915 9.3137085,0 6,0 C2.6862915,0 0,2.6862915 0,6 C0,9.3137085 2.6862915,12 6,12 Z" id="椭圆形" transform="translate(6.000000, 6.000000) scale(-1, 1) translate(-6.000000, -6.000000) "></path>
                    </g>
                    <text id="B" font-family="TimesNewRomanPS-BoldMT, Times New Roman" font-size="9" font-weight="bold" fill="#A0886E">
                        <tspan x="3.5" y="9">B</tspan>
                    </text>
                </g>
                <text id="Interpretation" font-family="TimesNewRomanPS-BoldMT, Times New Roman" font-size="10" font-weight="bold" fill="#000000">
                    <tspan x="20" y="13">Interpretation</tspan>
                </text>
                <g id="编组-135" transform="translate(5.000000, 22.000000)">
                    <g id="content/folder-" fill="#F5F3EF" filter="url(#filter-2)">
                        <g id="shapes/rounded-aquare-">
                            <path d="M13.5,0 C27,0 27,0 27,13.5 C27,27 27,27 13.5,27 C0,27 0,27 0,13.5 C0,0 0,0 13.5,0 Z" id="Rectangle"></path>
                        </g>
                    </g>
                    <g id="xinxitiqu" transform="translate(3.857143, 4.821429)" fill="#8C765F" fill-rule="nonzero">
                        <path d="M9.74198392,5.68965673 C8.17706995,5.68965673 6.89864571,4.41051249 6.89864571,2.84471719 C6.89864571,1.27892188 8.17706995,0 9.74198392,0 C11.3068979,0 12.5850999,1.27914424 12.5850999,2.84493957 C12.5850999,4.41073489 11.3068979,5.68965673 9.74198392,5.68965673 Z M9.74198392,1.27914424 C8.8777058,1.27914424 8.17706995,1.98017469 8.17706995,2.84493957 C8.17706995,3.70970444 8.8777058,4.41073489 9.74198392,4.41073489 C10.606262,4.41073489 11.3068979,3.70970444 11.3068979,2.84493957 C11.3036078,1.98154194 10.6048956,1.2824362 9.74198392,1.27914424 Z M9.74198392,18.3214286 C8.17706995,18.3214286 6.89864571,17.0422843 6.89864571,15.476489 C6.89864571,13.9106937 8.17706995,12.6313271 9.74198392,12.6313271 C11.3068979,12.6313271 12.5853221,13.9104713 12.5853221,15.4762666 C12.5853221,17.0420619 11.3068979,18.3214286 9.74198392,18.3214286 Z M9.74198392,13.9109161 C9.1090353,13.9109161 8.53841088,14.2924099 8.29619193,14.8775075 C8.05397298,15.4626051 8.18786038,16.1360816 8.63542265,16.5838959 C9.08298491,17.0317102 9.75608231,17.165673 10.3408506,16.9233176 C10.9256189,16.6809623 11.3068979,16.1100165 11.3068979,15.4767114 C11.3037295,14.6132269 10.6049819,13.9139864 9.74198392,13.9106937 L9.74198392,13.9109161 Z M16.4423761,18.3214286 C14.8774621,18.3214286 13.5990379,17.0422843 13.5990379,15.476489 C13.5990379,13.9106937 14.8774621,12.6313271 16.4423761,12.6313271 C18.0072901,12.6313271 19.2857143,13.9104713 19.2857143,15.4762666 C19.2857143,17.0420619 18.0070678,18.3214286 16.4423761,18.3214286 Z M16.4423761,13.9109161 C15.8094275,13.9109161 15.238803,14.2924099 14.9965841,14.8775075 C14.7543651,15.4626051 14.8882525,16.1360816 15.3358148,16.5838959 C15.7833771,17.0317102 16.4564745,17.165673 17.0412427,16.9233176 C17.626011,16.6809623 18.00729,16.1100165 18.00729,15.4767114 C17.9850643,14.6165358 17.2798418,13.9106937 16.4423761,13.9106937 L16.4423761,13.9109161 Z M2.84333821,18.3214286 C1.27842424,18.3214286 0,17.0422843 0,15.476489 C0,13.9106937 1.27842424,12.6313271 2.84333821,12.6313271 C4.40825218,12.6313271 5.68667642,13.9104713 5.68667642,15.4762666 C5.68667642,17.0420619 4.40802993,18.3214286 2.84333821,18.3214286 Z M2.84333821,13.9109161 C2.21038959,13.9109161 1.63976516,14.2924099 1.39754621,14.8775075 C1.15532726,15.4626051 1.28921465,16.1360816 1.73677691,16.5838959 C2.18433918,17.0317102 2.85743658,17.165673 3.44220485,16.9233176 C4.02697313,16.6809623 4.40825216,16.1100165 4.40825216,15.4767114 C4.38602642,14.6165358 3.70280736,13.9106937 2.84333821,13.9106937 L2.84333821,13.9109161 Z" id="形状"></path>
                        <path d="M17.0095768,11.4349091 C16.8062114,9.59736236 15.5055614,8.16722038 13.9075311,8.16722038 L10.381196,8.16722038 L10.381196,6.62900049 L10.381196,6.61232182 C10.381196,6.25301638 10.0900854,5.96174177 9.73098219,5.96174177 C9.37187899,5.96174177 9.08076833,6.25301638 9.08076833,6.61232182 L9.08076833,8.16722038 L5.2897248,8.16722038 C3.69991801,8.16722038 2.37415296,9.56222592 2.18345615,11.4113366 C2.18034455,11.4406911 2.17767745,11.4700455 2.17612165,11.4989553 C2.14473267,11.7374583 2.247465,11.9738223 2.44322021,12.113489 C2.63897543,12.2531557 2.89578837,12.2733187 3.11092015,12.1659118 C3.32605192,12.0585049 3.46437333,11.8410667 3.47054843,11.6005841 C3.47749298,11.582366 3.48233983,11.5634153 3.48499515,11.5440989 C3.63257404,10.3803712 4.41847601,9.46838051 5.31150602,9.46838051 L9.08076833,9.46838051 L9.08076833,11.6032527 C9.09369765,11.9528987 9.38073826,12.2296712 9.73042654,12.2296712 C10.0801148,12.2296712 10.3671554,11.9528987 10.3800848,11.6032527 L10.3800848,9.46838051 L13.9297568,9.46838051 C14.8423455,9.46838051 15.6118004,10.3801488 15.7567122,11.5425423 L15.7567122,11.5710072 C15.7564763,11.8143217 15.8952849,12.0363549 16.1140548,12.1425993 C16.3328246,12.2488437 16.5930438,12.2205962 16.7839513,12.0698803 C16.9748589,11.9191645 17.0628477,11.6725119 17.0104659,11.4349091 L17.0095768,11.4349091 Z" id="路径"></path>
                    </g>
                </g>
                <text id="Feature-extraction" font-family="TimesNewRomanPSMT, Times New Roman" font-size="9" font-weight="normal" line-spacing="7" letter-spacing="0.2" fill="#000000">
                    <tspan x="40" y="31">Feature </tspan>
                    <tspan x="40" y="38">extraction </tspan>
                </text>
                <text id="Classification" font-family="TimesNewRomanPSMT, Times New Roman" font-size="9" font-weight="normal" fill="#000000">
                    <tspan x="40" y="49">Classification</tspan>
                </text>
                <line x1="0" y1="18.5" x2="114" y2="18.5" id="路径-18" stroke="#C2C2C2" stroke-width="0.5"></line>
                <text id="(21)" font-family="TimesNewRomanPSMT, Times New Roman" font-size="9" font-weight="normal" line-spacing="7" fill="#000000">
                    <tspan x="96" y="34">(21)</tspan>
                </text>
                <text id="(30)" font-family="TimesNewRomanPS-BoldMT, Times New Roman" font-size="10" font-weight="bold" fill="#896E50">
                    <tspan x="92" y="13"> (30)</tspan>
                </text>
                <text id="(9)" font-family="TimesNewRomanPSMT, Times New Roman" font-size="9" font-weight="normal" fill="#000000">
                    <tspan x="98" y="47"> (9)</tspan>
                </text>
                <rect id="矩形" stroke="#979797" stroke-width="0.5" x="0.25" y="0.25" width="113.5" height="56.5" rx="3"></rect>
            </g>
            <g id="编组-132" transform="translate(270.000000, 14.000000)">
                <g id="编组-101" transform="translate(4.000000, 3.000000)">
                    <g id="编组-100" fill="#A5876A" fill-opacity="0.3">
                        <path d="M6,12 C9.3137085,12 12,9.3137085 12,6 C12,2.6862915 9.3137085,0 6,0 C2.6862915,0 0,2.6862915 0,6 C0,9.3137085 2.6862915,12 6,12 Z" id="椭圆形" transform="translate(6.000000, 6.000000) scale(-1, 1) translate(-6.000000, -6.000000) "></path>
                    </g>
                    <text id="C" font-family="TimesNewRomanPS-BoldMT, Times New Roman" font-size="9" font-weight="bold" fill="#A0886E">
                        <tspan x="2.5" y="9">C</tspan>
                    </text>
                </g>
                <text id="Creation" font-family="TimesNewRomanPS-BoldMT, Times New Roman" font-size="10" font-weight="bold" fill="#000000">
                    <tspan x="20" y="12">Creation</tspan>
                </text>
                <g id="编组-136" transform="translate(5.000000, 23.000000)">
                    <g id="content/folder-" fill="#F5F3EF" filter="url(#filter-3)">
                        <g id="shapes/rounded-aquare-">
                            <path d="M13.5,0 C27,0 27,0 27,13.5 C27,27 27,27 13.5,27 C0,27 0,27 0,13.5 C0,0 0,0 13.5,0 Z" id="Rectangle"></path>
                        </g>
                    </g>
                    <g id="bianmashengchengqix" transform="translate(4.821429, 4.821429)" fill="#8C765F" fill-rule="nonzero" stroke="#97816A" stroke-width="0.2">
                        <path d="M3.55851443,18.2547427 L0.49563662,18.2547427 C0.3637865,18.256082 0.236946531,18.203274 0.143709612,18.1081974 C0.0504726925,18.0131207 -0.00131336035,17.8837778 0,17.749326 L0,0.505390832 C0,0.222371966 0.218094294,0 0.49563662,0 L14.7196808,0 C14.9972232,0 15.2152921,0.222371966 15.2152921,0.505390832 L15.2152921,8.57142851 C15.2152921,8.85444738 14.9972232,9.07681934 14.7196808,9.07681934 C14.5878307,9.07818444 14.4609907,9.02537653 14.3677538,8.93029984 C14.2745169,8.83522314 14.2227309,8.70588033 14.2240695,8.57142851 L14.2240695,1.01078166 L0.991247917,1.01078166 L0.991247917,17.2439352 L3.55851443,17.2439352 C3.83605676,17.2439352 4.05412573,17.4663072 4.05412573,17.749326 C4.05412573,18.0323449 3.83605676,18.2547427 3.55851443,18.2547427 Z" id="路径"></path>
                        <path d="M11.2206651,5.27628029 L3.97482792,5.27628029 C3.8429778,5.27764539 3.71613783,5.22483748 3.62290092,5.12976078 C3.529664,5.03468409 3.47787794,4.90534128 3.4791913,4.77088946 C3.4791913,4.48787059 3.6972856,4.26549862 3.97482792,4.26549862 L11.2206651,4.26549862 C11.4982074,4.26549862 11.7162764,4.48787059 11.7162764,4.77088946 C11.7162764,5.05390832 11.4982074,5.27628029 11.2206651,5.27628029 Z M11.2206651,9.19811314 L3.97482792,9.19811314 C3.8429778,9.19947824 3.71613783,9.14667033 3.62290092,9.05159364 C3.529664,8.95651694 3.47787794,8.82717413 3.4791913,8.69272231 C3.4791913,8.40970345 3.6972856,8.18733148 3.97482792,8.18733148 L11.2206651,8.18733148 C11.4982074,8.18733148 11.7162764,8.40970345 11.7162764,8.69272231 C11.7162764,8.97574118 11.4982074,9.19811314 11.2206651,9.19811314 L11.2206651,9.19811314 Z M5.78876527,13.119946 L3.97482792,13.119946 C3.8429778,13.1213111 3.71613783,13.0685032 3.62290092,12.9734265 C3.529664,12.8783498 3.47787794,12.749007 3.4791913,12.6145552 C3.4791913,12.3315363 3.6972856,12.1091643 3.97482792,12.1091643 L5.78876527,12.1091643 C6.0663076,12.1091643 6.28437657,12.3315363 6.28437657,12.6145552 C6.28437657,12.897574 6.0663076,13.119946 5.78876527,13.119946 L5.78876527,13.119946 Z M10.6259315,18.2749325 C10.4893607,18.2776066 10.3586614,18.2183718 10.2690914,18.1132074 L7.83068381,15.4649595 C7.64287494,15.260792 7.65172633,14.9403672 7.85050826,14.7473045 L10.4475115,12.240566 C10.6477282,12.0490512 10.9619527,12.0580772 11.1512795,12.2607816 C11.3390884,12.464949 11.330237,12.7853739 11.131455,12.9784366 L8.89129199,15.1415093 L10.9926839,17.4258759 C11.1804928,17.6300433 11.1716414,17.9504682 10.9728594,18.1435309 C10.8769128,18.2292004 10.7534569,18.2759602 10.6259315,18.2749325 L10.6259315,18.2749325 Z M16.3353737,18.2749597 C16.1371588,18.272201 15.9592653,18.1502565 15.8819558,17.9641182 C15.8046462,17.7779799 15.8425374,17.5628408 15.9785335,17.4157681 L18.0898377,15.1314015 L15.8496746,12.9683288 C15.6508927,12.7752661 15.6420413,12.4548412 15.8298501,12.2506738 C16.019177,12.0479694 16.3334015,12.0389434 16.5336182,12.2304581 L19.1306214,14.7371967 C19.3288659,14.9292452 19.3387781,15.2526953 19.1504458,15.4548516 L16.702126,18.1030996 C16.6112238,18.2134202 16.4766717,18.2764613 16.3353737,18.2749597 L16.3353737,18.2749597 Z M12.5687278,19.2857142 C12.5290789,19.2857142 12.4993422,19.2857142 12.4596933,19.2756063 C12.1918362,19.2136402 12.0234723,18.9425571 12.0830287,18.6691373 L13.6987216,11.3814015 C13.7733115,11.1247265 14.0302049,10.9709078 14.2863573,11.0295461 C14.5425096,11.0881844 14.7102769,11.3392161 14.6701197,11.6037735 L13.0544269,18.8915093 C13.0024373,19.1223007 12.8009478,19.2858344 12.5687278,19.2857142 L12.5687278,19.2857142 Z" id="形状"></path>
                    </g>
                </g>
                <text id="Image-generation" font-family="TimesNewRomanPSMT, Times New Roman" font-size="9" font-weight="normal" letter-spacing="-0.3" fill="#000000">
                    <tspan x="37" y="29">Image generation </tspan>
                </text>
                <text id="Video-generation" font-family="TimesNewRomanPSMT, Times New Roman" font-size="9" font-weight="normal" letter-spacing="-0.3" fill="#000000">
                    <tspan x="37" y="39.5">Video generation</tspan>
                </text>
                <text id="Others" font-family="TimesNewRomanPSMT, Times New Roman" font-size="9" font-weight="normal" letter-spacing="-0.2" fill="#000000">
                    <tspan x="37" y="50">Others </tspan>
                </text>
                <line x1="0" y1="18" x2="114" y2="18" id="路径-18" stroke="#C2C2C2" stroke-width="0.5"></line>
                <text id="(3)" font-family="TimesNewRomanPSMT, Times New Roman" font-size="9" font-weight="normal" letter-spacing="-0.2" fill="#000000">
                    <tspan x="101" y="50">(3)</tspan>
                </text>
                <text id="(5)" font-family="TimesNewRomanPSMT, Times New Roman" font-size="9" font-weight="normal" letter-spacing="-0.3" fill="#000000">
                    <tspan x="99" y="40"> (5)</tspan>
                </text>
                <text id="(39)" font-family="TimesNewRomanPSMT, Times New Roman" font-size="9" font-weight="normal" letter-spacing="-0.3" fill="#000000">
                    <tspan x="97" y="29">(39)</tspan>
                </text>
                <text id="(47)" font-family="TimesNewRomanPS-BoldMT, Times New Roman" font-size="10" font-weight="bold" fill="#896E50">
                    <tspan x="92" y="12"> (47)</tspan>
                </text>
                <rect id="矩形" stroke="#979797" stroke-width="0.5" x="0.25" y="0.25" width="113.5" height="56.5" rx="3"></rect>
            </g>
            <g id="编组-133" transform="translate(405.000000, 14.000000)">
                <g id="编组-101" transform="translate(4.000000, 4.000000)">
                    <g id="编组-100" fill="#A5876A" fill-opacity="0.3">
                        <path d="M6,12 C9.3137085,12 12,9.3137085 12,6 C12,2.6862915 9.3137085,0 6,0 C2.6862915,0 0,2.6862915 0,6 C0,9.3137085 2.6862915,12 6,12 Z" id="椭圆形" transform="translate(6.000000, 6.000000) scale(-1, 1) translate(-6.000000, -6.000000) "></path>
                    </g>
                    <text id="D" font-family="TimesNewRomanPS-BoldMT, Times New Roman" font-size="9" font-weight="bold" fill="#A0886E">
                        <tspan x="3.5" y="9">D</tspan>
                    </text>
                </g>
                <text id="Exhibition" font-family="TimesNewRomanPS-BoldMT, Times New Roman" font-size="10" font-weight="bold" fill="#000000">
                    <tspan x="21" y="13">Exhibition </tspan>
                </text>
                <g id="编组-137" transform="translate(4.000000, 22.000000)">
                    <g id="content/folder-" fill="#F5F3EF" filter="url(#filter-4)">
                        <g id="shapes/rounded-aquare-">
                            <path d="M13.5,0 C27,0 27,0 27,13.5 C27,27 27,27 13.5,27 C0,27 0,27 0,13.5 C0,0 0,0 13.5,0 Z" id="Rectangle"></path>
                        </g>
                    </g>
                    <g id="zhanshi" transform="translate(4.000000, 4.000000)" fill="#8C765F" fill-rule="nonzero">
                        <path d="M16.7394058,9.00027043 L12.4153942,4.62704327 C12.4153942,4.62704327 11.4723307,3.71715745 10.4071082,4.63197115 C9.6854581,5.36475361 8.47262666,6.59624399 7.85345644,7.22496995 L7.22638494,6.6133113 C6.74991122,6.1538762 5.97736151,6.1538762 5.50085819,6.6133113 L3.23748224,8.82109375 L3.24085582,8.82596154 C3.06711648,8.93416466 2.95084635,9.1281851 2.95084635,9.35033053 C2.95084635,9.69020433 3.22221236,9.96571514 3.55690696,9.96571514 C3.70075758,9.96571514 3.83268229,9.91460337 3.93661222,9.82959736 L3.94809422,9.84618389 C3.95990175,9.82689303 3.97085109,9.80718149 3.9827474,9.78798077 C4.00799006,9.76265024 4.03077652,9.73488582 4.05134351,9.70540865 L5.93220289,7.86114784 C6.17045455,7.63143029 6.55669981,7.63143029 6.79492188,7.86114784 L8.68406723,9.71352163 C8.70247396,9.74065505 8.72312973,9.76601563 8.7454723,9.78978365 C8.75692472,9.80844351 8.76757813,9.82749399 8.77903054,9.84618389 L8.7911044,9.83371394 C8.89686908,9.92512019 9.0337062,9.98058894 9.18347538,9.98058894 C9.51816998,9.98058894 9.78953598,9.70507812 9.78953598,9.36520433 C9.78953598,9.15691106 9.68735204,8.97313702 9.53136837,8.86177885 L8.72085109,8.07118389 L10.8245739,5.94765625 C10.8245739,5.94765625 11.3467093,5.44032452 11.9580078,5.90745192 C12.5506629,6.51682692 15.7963719,9.84618389 15.7963719,9.84618389 L15.8187145,9.82614183 C15.9255741,9.92196514 16.0655481,9.98058894 16.2193123,9.98058894 C16.5540365,9.98058894 16.8253729,9.70507812 16.8253729,9.36520433 C16.8253729,9.23635817 16.7862216,9.11685697 16.719549,9.0179988 L16.7394058,9.00027043 Z" id="路径"></path>
                        <path d="M5.45454545,4.30769231 C5.45454545,4.81749362 5.86155932,5.23076923 6.36363636,5.23076923 C6.86571341,5.23076923 7.27272727,4.81749362 7.27272727,4.30769231 C7.27272727,3.797891 6.86571341,3.38461538 6.36363636,3.38461538 C5.86155932,3.38461538 5.45454545,3.797891 5.45454545,4.30769231 Z" id="路径"></path>
                        <path d="M19.3939394,1.51048678 C19.3939394,0.676262019 18.7289595,0 17.9086766,0 L2.09132339,0 C1.27101089,0 0.606060606,0.676292067 0.606060606,1.51048678 L0.606060606,12.3076923 L19.3939394,12.3076923 L19.3939394,1.51048678 Z M18.1818182,11.0769231 L1.81818182,11.0769231 L1.81818182,1.99095553 C1.81818182,1.57109375 2.15178149,1.23076923 2.5633286,1.23076923 L17.4366714,1.23076923 C17.8482185,1.23076923 18.1818182,1.5711238 18.1818182,1.99095553 L18.1818182,11.0769231 Z" id="形状"></path>
                        <path d="M19.5454545,13.2307692 L0.454545455,13.2307692 C0.203509706,13.2307692 0,13.4374099 0,13.6923077 L0,14 C0,14.2548978 0.203509706,14.4615385 0.454545455,14.4615385 L9.09090909,14.4615385 L9.09090909,19.5384615 C9.09090909,19.7933594 9.2944188,20 9.54545455,20 L10.4545455,20 C10.7055812,20 10.9090909,19.7933594 10.9090909,19.5384615 L10.9090909,14.4615385 L19.5454545,14.4615385 C19.7964903,14.4615385 20,14.2548978 20,14 L20,13.6923077 C20,13.4374099 19.7964903,13.2307692 19.5454545,13.2307692 Z" id="路径"></path>
                    </g>
                </g>
                <text id="Others" font-family="TimesNewRomanPSMT, Times New Roman" font-size="9" font-weight="normal" fill="#000000">
                    <tspan x="39" y="51">Others</tspan>
                </text>
                <text id="Touch-screen" font-family="TimesNewRomanPSMT, Times New Roman" font-size="9" font-weight="normal" fill="#000000">
                    <tspan x="39" y="27">Touch-screen </tspan>
                </text>
                <text id="XR" font-family="TimesNewRomanPSMT, Times New Roman" font-size="9" font-weight="normal" fill="#000000">
                    <tspan x="39" y="39">XR</tspan>
                </text>
                <rect id="矩形" stroke="#979797" stroke-width="0.5" x="0.25" y="0.25" width="109.5" height="56.5" rx="3"></rect>
                <line x1="0.5" y1="18" x2="110" y2="17.5" id="路径-18" stroke="#C2C2C2" stroke-width="0.5"></line>
                <text id="(9)" font-family="TimesNewRomanPS-BoldMT, Times New Roman" font-size="10" font-weight="bold" fill="#896E50">
                    <tspan x="94" y="12">(9)</tspan>
                </text>
                <text id="(2)" font-family="TimesNewRomanPSMT, Times New Roman" font-size="9" font-weight="normal" fill="#000000">
                    <tspan x="92" y="38.5"> (2)</tspan>
                </text>
                <text id="(5)" font-family="TimesNewRomanPSMT, Times New Roman" font-size="9" font-weight="normal" fill="#000000">
                    <tspan x="94" y="27">(5)</tspan>
                </text>
                <text id="(2)" font-family="TimesNewRomanPSMT, Times New Roman" font-size="9" font-weight="normal" fill="#000000">
                    <tspan x="92" y="50"> (2)</tspan>
                </text>
            </g>
            <g id="编组-143" transform="translate(54.843750, 0.000000)">
                <g id="编组-141" transform="translate(0.000000, 73.000000)">
                    <g id="jiantou-jiantou6" transform="translate(399.156650, 0.000000)" fill="#979797" fill-rule="nonzero">
                        <path d="M5.72248503,0.0141985466 C5.62676108,0.0359618382 5.53915155,0.0837877962 5.46962335,0.152235503 L0.154756718,5.39450265 C0.0556976886,5.491661 4.54747351e-13,5.62376508 4.54747351e-13,5.76155547 C4.54747351e-13,5.89934586 0.0556976886,6.03144993 0.154756718,6.12860829 C0.253291804,6.22655551 0.387396198,6.28164586 0.527290384,6.28164586 C0.66718457,6.28164586 0.801288964,6.22655551 0.89982405,6.12860829 L5.84414492,1.25182535 L10.7876706,6.12782398 C10.8861745,6.22552989 11.0201081,6.28046676 11.1598067,6.28046676 C11.2995053,6.28046676 11.4334389,6.22552989 11.5319428,6.12782398 C11.6310018,6.03066563 11.6866995,5.89856155 11.6866995,5.76077117 C11.6866995,5.62298078 11.6310018,5.49087671 11.5319428,5.39371835 L6.21707616,0.15145121 C6.0877491,0.0243291108 5.90087292,-0.0276139124 5.72328021,0.0141985466 L5.72248503,0.0141985466 Z" id="形状"></path>
                    </g>
                    <polyline id="路径-20" stroke="#979797" stroke-width="0.8" stroke-linecap="round" stroke-linejoin="round" points="2.67005791e-14 2 2.67005791e-14 11.9143409 405 11.9143409 405 1.14082293"></polyline>
                </g>
                <g id="编组-141" transform="translate(274.421675, 5.957170) scale(1, -1) translate(-274.421675, -5.957170) translate(138.000000, 0.000000)">
                    <g id="jiantou-jiantou6" transform="translate(261.156650, 0.000000)" fill="#979797" fill-rule="nonzero">
                        <path d="M5.72248503,0.0141985466 C5.62676108,0.0359618382 5.53915155,0.0837877962 5.46962335,0.152235503 L0.154756718,5.39450265 C0.0556976886,5.491661 4.54747351e-13,5.62376508 4.54747351e-13,5.76155547 C4.54747351e-13,5.89934586 0.0556976886,6.03144993 0.154756718,6.12860829 C0.253291804,6.22655551 0.387396198,6.28164586 0.527290384,6.28164586 C0.66718457,6.28164586 0.801288964,6.22655551 0.89982405,6.12860829 L5.84414492,1.25182535 L10.7876706,6.12782398 C10.8861745,6.22552989 11.0201081,6.28046676 11.1598067,6.28046676 C11.2995053,6.28046676 11.4334389,6.22552989 11.5319428,6.12782398 C11.6310018,6.03066563 11.6866995,5.89856155 11.6866995,5.76077117 C11.6866995,5.62298078 11.6310018,5.49087671 11.5319428,5.39371835 L6.21707616,0.15145121 C6.0877491,0.0243291108 5.90087292,-0.0276139124 5.72328021,0.0141985466 L5.72248503,0.0141985466 Z" id="形状"></path>
                    </g>
                    <polyline id="路径-20" stroke="#979797" stroke-width="0.8" stroke-linecap="round" stroke-linejoin="round" points="-1.07864316e-12 2 -1.15284415e-12 11.9143409 267 11.9143409 267 1.14082293"></polyline>
                </g>
                <g id="jiantou-jiantou6" transform="translate(69.000000, 42.500000) scale(1, -1) rotate(90.000000) translate(-69.000000, -42.500000) translate(63.156250, 37.000000)" fill="#979797" fill-rule="nonzero">
                    <path d="M5.72288528,0.0141985466 C5.62716133,0.0359618382 5.5395518,0.0837877962 5.47002359,0.152235503 L0.155156966,5.39450265 C0.0560979366,5.491661 0.000400248077,5.62376508 0.000400248077,5.76155547 C0.000400248077,5.89934586 0.0560979366,6.03144993 0.155156966,6.12860829 C0.253692052,6.22655551 0.387796446,6.28164586 0.527690632,6.28164586 C0.667584818,6.28164586 0.801689212,6.22655551 0.900224298,6.12860829 L5.84454516,1.25182535 L10.7880709,6.12782398 C10.8865748,6.22552989 11.0205083,6.28046676 11.160207,6.28046676 C11.2999056,6.28046676 11.4338391,6.22552989 11.532343,6.12782398 C11.6314021,6.03066563 11.6870997,5.89856155 11.6870997,5.76077117 C11.6870997,5.62298078 11.6314021,5.49087671 11.532343,5.39371835 L6.21747641,0.15145121 C6.08814935,0.0243291108 5.90127316,-0.0276139124 5.72368045,0.0141985466 L5.72288528,0.0141985466 Z M5.72288528,4.7317684 C5.62707323,4.75375301 5.53945447,4.80185578 5.47002359,4.87058966 L0.155156966,10.1120725 C0.0558532903,10.2092616 0,10.3415342 0,10.4795175 C0,10.6175007 0.0558532903,10.7497733 0.155156966,10.8469624 C0.253692052,10.9449096 0.387796446,11 0.527690632,11 C0.667584818,11 0.801689212,10.9449096 0.900224298,10.8469624 L5.84454516,5.97017951 L10.7880709,10.8461781 C10.8865748,10.943884 11.0205083,10.9988209 11.160207,10.9988209 C11.2999056,10.9988209 11.4338391,10.943884 11.532343,10.8461781 C11.6316467,10.748989 11.6875,10.6167164 11.6875,10.4787332 C11.6875,10.3407499 11.6316467,10.2084773 11.532343,10.1112882 L6.21747641,4.86980535 C6.08830973,4.74240174 5.90141202,4.69015589 5.72368045,4.7317684 L5.72288528,4.7317684 Z" id="形状"></path>
                </g>
                <g id="jiantou-jiantou6" transform="translate(204.000000, 42.500000) scale(1, -1) rotate(90.000000) translate(-204.000000, -42.500000) translate(198.156250, 37.000000)" fill="#979797" fill-rule="nonzero">
                    <path d="M5.72288528,0.0141985466 C5.62716133,0.0359618382 5.5395518,0.0837877962 5.47002359,0.152235503 L0.155156966,5.39450265 C0.0560979366,5.491661 0.000400248077,5.62376508 0.000400248077,5.76155547 C0.000400248077,5.89934586 0.0560979366,6.03144993 0.155156966,6.12860829 C0.253692052,6.22655551 0.387796446,6.28164586 0.527690632,6.28164586 C0.667584818,6.28164586 0.801689212,6.22655551 0.900224298,6.12860829 L5.84454516,1.25182535 L10.7880709,6.12782398 C10.8865748,6.22552989 11.0205083,6.28046676 11.160207,6.28046676 C11.2999056,6.28046676 11.4338391,6.22552989 11.532343,6.12782398 C11.6314021,6.03066563 11.6870997,5.89856155 11.6870997,5.76077117 C11.6870997,5.62298078 11.6314021,5.49087671 11.532343,5.39371835 L6.21747641,0.15145121 C6.08814935,0.0243291108 5.90127316,-0.0276139124 5.72368045,0.0141985466 L5.72288528,0.0141985466 Z M5.72288528,4.7317684 C5.62707323,4.75375301 5.53945447,4.80185578 5.47002359,4.87058966 L0.155156966,10.1120725 C0.0558532903,10.2092616 0,10.3415342 0,10.4795175 C0,10.6175007 0.0558532903,10.7497733 0.155156966,10.8469624 C0.253692052,10.9449096 0.387796446,11 0.527690632,11 C0.667584818,11 0.801689212,10.9449096 0.900224298,10.8469624 L5.84454516,5.97017951 L10.7880709,10.8461781 C10.8865748,10.943884 11.0205083,10.9988209 11.160207,10.9988209 C11.2999056,10.9988209 11.4338391,10.943884 11.532343,10.8461781 C11.6316467,10.748989 11.6875,10.6167164 11.6875,10.4787332 C11.6875,10.3407499 11.6316467,10.2084773 11.532343,10.1112882 L6.21747641,4.86980535 C6.08830973,4.74240174 5.90141202,4.69015589 5.72368045,4.7317684 L5.72288528,4.7317684 Z" id="形状"></path>
                </g>
                <g id="jiantou-jiantou6" transform="translate(339.000000, 42.500000) scale(1, -1) rotate(90.000000) translate(-339.000000, -42.500000) translate(333.156250, 37.000000)" fill="#979797" fill-rule="nonzero">
                    <path d="M5.72288528,0.0141985466 C5.62716133,0.0359618382 5.5395518,0.0837877962 5.47002359,0.152235503 L0.155156966,5.39450265 C0.0560979366,5.491661 0.000400248077,5.62376508 0.000400248077,5.76155547 C0.000400248077,5.89934586 0.0560979366,6.03144993 0.155156966,6.12860829 C0.253692052,6.22655551 0.387796446,6.28164586 0.527690632,6.28164586 C0.667584818,6.28164586 0.801689212,6.22655551 0.900224298,6.12860829 L5.84454516,1.25182535 L10.7880709,6.12782398 C10.8865748,6.22552989 11.0205083,6.28046676 11.160207,6.28046676 C11.2999056,6.28046676 11.4338391,6.22552989 11.532343,6.12782398 C11.6314021,6.03066563 11.6870997,5.89856155 11.6870997,5.76077117 C11.6870997,5.62298078 11.6314021,5.49087671 11.532343,5.39371835 L6.21747641,0.15145121 C6.08814935,0.0243291108 5.90127316,-0.0276139124 5.72368045,0.0141985466 L5.72288528,0.0141985466 Z M5.72288528,4.7317684 C5.62707323,4.75375301 5.53945447,4.80185578 5.47002359,4.87058966 L0.155156966,10.1120725 C0.0558532903,10.2092616 0,10.3415342 0,10.4795175 C0,10.6175007 0.0558532903,10.7497733 0.155156966,10.8469624 C0.253692052,10.9449096 0.387796446,11 0.527690632,11 C0.667584818,11 0.801689212,10.9449096 0.900224298,10.8469624 L5.84454516,5.97017951 L10.7880709,10.8461781 C10.8865748,10.943884 11.0205083,10.9988209 11.160207,10.9988209 C11.2999056,10.9988209 11.4338391,10.943884 11.532343,10.8461781 C11.6316467,10.748989 11.6875,10.6167164 11.6875,10.4787332 C11.6875,10.3407499 11.6316467,10.2084773 11.532343,10.1112882 L6.21747641,4.86980535 C6.08830973,4.74240174 5.90141202,4.69015589 5.72368045,4.7317684 L5.72288528,4.7317684 Z" id="形状"></path>
                </g>
            </g>
        </g>
    </g>
</svg>